<svg version="1.0" preserveAspectRatio="xMidYMid meet" height="500" viewBox="0 0 375 374.999991" zoomAndPan="magnify" width="500" xmlns:xlink="http://www.w3.org/1999/xlink" xmlns="http://www.w3.org/2000/svg"><defs><g></g><clipPath id="c12312629f"><path clip-rule="nonzero" d="M 75.570312 249 L 157.859375 249 L 157.859375 277.21875 L 75.570312 277.21875 Z M 75.570312 249"></path></clipPath><clipPath id="b87f68bea8"><path clip-rule="nonzero" d="M 76 148.054688 L 157 148.054688 L 157 246 L 76 246 Z M 76 148.054688"></path></clipPath></defs><g fill-opacity="1" fill="#68ab95"><g transform="translate(6.943341, 212.881443)"><g><path d="M 4.34375 14.78125 L 21.359375 6.453125 C 24.484375 11.617188 29.914062 14.203125 37.65625 14.203125 C 41.257812 14.203125 44.601562 13.046875 47.6875 10.734375 C 50.78125 8.429688 52.328125 4.894531 52.328125 0.125 L 52.328125 -4.34375 C 48.648438 -0.269531 42.082031 1.765625 32.625 1.765625 C 23.9375 1.765625 16.773438 -1.300781 11.140625 -7.4375 C 5.515625 -13.582031 2.703125 -21.113281 2.703125 -30.03125 C 2.703125 -38.945312 5.515625 -46.492188 11.140625 -52.671875 C 16.773438 -58.859375 23.9375 -61.953125 32.625 -61.953125 C 40.363281 -61.953125 46.8125 -59.566406 51.96875 -54.796875 L 52.328125 -54.796875 L 52.328125 -60.1875 L 73.09375 -60.1875 L 73.09375 1.640625 C 73.09375 11.421875 69.847656 18.96875 63.359375 24.28125 C 56.867188 29.601562 48.300781 32.265625 37.65625 32.265625 C 20.445312 32.265625 9.34375 26.4375 4.34375 14.78125 Z M 28.796875 -40.234375 C 26.097656 -37.578125 24.75 -34.175781 24.75 -30.03125 C 24.75 -25.882812 26.039062 -22.5 28.625 -19.875 C 31.207031 -17.257812 34.609375 -15.953125 38.828125 -15.953125 C 42.898438 -15.953125 46.242188 -17.28125 48.859375 -19.9375 C 51.484375 -22.601562 52.796875 -25.96875 52.796875 -30.03125 C 52.796875 -34.175781 51.445312 -37.578125 48.75 -40.234375 C 46.050781 -42.898438 42.742188 -44.234375 38.828125 -44.234375 C 34.847656 -44.234375 31.503906 -42.898438 28.796875 -40.234375 Z M 28.796875 -40.234375"></path></g></g></g><g fill-opacity="1" fill="#000000"><g transform="translate(77.108201, 212.881443)"><g></g></g></g><g fill-opacity="1" fill="#000000"><g transform="translate(99.161767, 212.881443)"><g></g></g></g><g fill-opacity="1" fill="#000000"><g transform="translate(121.215333, 212.881443)"><g></g></g></g><g fill-opacity="1" fill="#000000"><g transform="translate(143.268899, 212.881443)"><g></g></g></g><g fill-opacity="1" fill="#d69caa"><g transform="translate(165.322894, 212.881443)"><g><path d="M 68.984375 -52.671875 C 74.617188 -46.492188 77.4375 -38.945312 77.4375 -30.03125 C 77.4375 -21.113281 74.617188 -13.582031 68.984375 -7.4375 C 63.359375 -1.300781 56.203125 1.765625 47.515625 1.765625 C 39.535156 1.765625 32.96875 -1.09375 27.8125 -6.8125 L 27.578125 -6.8125 L 27.578125 0 L 7.046875 0 L 7.046875 -100.90625 L 27.8125 -100.90625 L 27.8125 -54.4375 C 32.96875 -59.445312 39.535156 -61.953125 47.515625 -61.953125 C 56.203125 -61.953125 63.359375 -58.859375 68.984375 -52.671875 Z M 51.5 -19.875 C 54.082031 -22.5 55.375 -25.882812 55.375 -30.03125 C 55.375 -34.175781 54.023438 -37.578125 51.328125 -40.234375 C 48.628906 -42.898438 45.285156 -44.234375 41.296875 -44.234375 C 37.390625 -44.234375 34.085938 -42.898438 31.390625 -40.234375 C 28.691406 -37.578125 27.34375 -34.175781 27.34375 -30.03125 C 27.34375 -25.96875 28.648438 -22.601562 31.265625 -19.9375 C 33.890625 -17.28125 37.234375 -15.953125 41.296875 -15.953125 C 45.523438 -15.953125 48.925781 -17.257812 51.5 -19.875 Z M 51.5 -19.875"></path></g></g></g><g fill-opacity="1" fill="#d69caa"><g transform="translate(235.475874, 212.881443)"><g><path d="M 9.03125 -93.734375 C 11.457031 -96.160156 14.351562 -97.375 17.71875 -97.375 C 21.082031 -97.375 23.972656 -96.160156 26.390625 -93.734375 C 28.816406 -91.316406 30.03125 -88.425781 30.03125 -85.0625 C 30.03125 -81.695312 28.816406 -78.800781 26.390625 -76.375 C 23.972656 -73.957031 21.082031 -72.75 17.71875 -72.75 C 14.351562 -72.75 11.457031 -73.957031 9.03125 -76.375 C 6.601562 -78.800781 5.390625 -81.695312 5.390625 -85.0625 C 5.390625 -88.425781 6.601562 -91.316406 9.03125 -93.734375 Z M 7.046875 -60.1875 L 7.046875 0 L 27.8125 0 L 27.8125 -60.1875 Z M 7.046875 -60.1875"></path></g></g></g><g fill-opacity="1" fill="#d69caa"><g transform="translate(260.931589, 212.881443)"><g><path d="M 10.5625 -60.1875 L 10.5625 -82.59375 L 31.328125 -82.59375 L 31.328125 -60.1875 L 44 -60.1875 L 44 -44.34375 L 31.328125 -44.34375 L 31.328125 -25.21875 C 31.328125 -19.664062 32.890625 -16.890625 36.015625 -16.890625 C 36.796875 -16.890625 37.617188 -17.046875 38.484375 -17.359375 C 39.347656 -17.671875 40.015625 -17.984375 40.484375 -18.296875 L 41.1875 -18.765625 L 46.34375 -2 C 41.882812 0.507812 36.800781 1.765625 31.09375 1.765625 C 27.175781 1.765625 23.8125 1.082031 21 -0.28125 C 18.1875 -1.65625 16.054688 -3.492188 14.609375 -5.796875 C 13.160156 -8.109375 12.125 -10.535156 11.5 -13.078125 C 10.875 -15.617188 10.5625 -18.335938 10.5625 -21.234375 L 10.5625 -44.34375 L 1.875 -44.34375 L 1.875 -60.1875 Z M 10.5625 -60.1875"></path></g></g></g><g fill-opacity="1" fill="#d69caa"><g transform="translate(297.29766, 212.881443)"><g><path d="M 67.9375 -27.21875 L 24.28125 -27.21875 C 24.28125 -23 25.648438 -19.867188 28.390625 -17.828125 C 31.128906 -15.796875 34.101562 -14.78125 37.3125 -14.78125 C 40.675781 -14.78125 43.332031 -15.226562 45.28125 -16.125 C 47.238281 -17.03125 49.46875 -18.8125 51.96875 -21.46875 L 67 -13.96875 C 60.738281 -3.476562 50.332031 1.765625 35.78125 1.765625 C 26.707031 1.765625 18.925781 -1.34375 12.4375 -7.5625 C 5.945312 -13.78125 2.703125 -21.269531 2.703125 -30.03125 C 2.703125 -38.789062 5.945312 -46.300781 12.4375 -52.5625 C 18.925781 -58.820312 26.707031 -61.953125 35.78125 -61.953125 C 45.320312 -61.953125 53.082031 -59.191406 59.0625 -53.671875 C 65.050781 -48.160156 68.046875 -40.28125 68.046875 -30.03125 C 68.046875 -28.625 68.007812 -27.6875 67.9375 -27.21875 Z M 24.875 -38.71875 L 47.75 -38.71875 C 47.28125 -41.84375 46.046875 -44.242188 44.046875 -45.921875 C 42.054688 -47.609375 39.5 -48.453125 36.375 -48.453125 C 32.925781 -48.453125 30.1875 -47.550781 28.15625 -45.75 C 26.125 -43.957031 25.03125 -41.613281 24.875 -38.71875 Z M 24.875 -38.71875"></path></g></g></g><path fill-rule="nonzero" fill-opacity="1" d="M 125.609375 176.53125 L 125.003906 176.53125 C 123.585938 176.53125 122.4375 177.679688 122.4375 179.097656 L 122.4375 193.492188 L 119.125 193.492188 L 119.125 179.097656 C 119.125 177.679688 117.976562 176.53125 116.558594 176.53125 C 115.144531 176.53125 113.996094 177.679688 113.996094 179.097656 L 113.996094 193.492188 L 110.679688 193.492188 L 110.679688 179.097656 C 110.679688 177.679688 109.53125 176.53125 108.113281 176.53125 L 107.511719 176.53125 C 106.09375 176.53125 104.945312 177.679688 104.945312 179.097656 L 104.945312 198.3125 C 104.945312 203.433594 108.261719 207.78125 112.863281 209.328125 L 112.863281 242.714844 C 112.863281 244.757812 114.519531 246.414062 116.558594 246.414062 C 118.601562 246.414062 120.257812 244.757812 120.257812 242.714844 L 120.257812 209.328125 C 124.859375 207.78125 128.175781 203.433594 128.175781 198.3125 L 128.175781 179.097656 C 128.175781 177.679688 127.027344 176.53125 125.609375 176.53125" fill="#68ab95"></path><g clip-path="url(#c12312629f)"><path fill-rule="nonzero" fill-opacity="1" d="M 142.570312 249.164062 C 148.425781 251.625 152.007812 254.914062 152.007812 258.53125 C 152.007812 266.144531 136.136719 272.316406 116.558594 272.316406 C 96.980469 272.316406 81.109375 266.144531 81.109375 258.53125 C 81.109375 254.914062 84.695312 251.625 90.550781 249.164062 C 81.417969 252.085938 75.59375 256.515625 75.59375 261.476562 C 75.59375 270.273438 93.933594 277.40625 116.558594 277.40625 C 139.1875 277.40625 157.527344 270.273438 157.527344 261.476562 C 157.527344 256.515625 151.703125 252.085938 142.570312 249.164062" fill="#68ab95"></path></g><g clip-path="url(#b87f68bea8)"><path fill-rule="nonzero" fill-opacity="1" d="M 116.558594 148.050781 C 94.574219 148.050781 76.75 165.871094 76.75 187.859375 C 76.75 213.273438 99.289062 235.570312 110.449219 245.054688 C 110.167969 244.328125 110.015625 243.539062 110.015625 242.714844 L 110.015625 214.269531 C 97.847656 211.324219 88.8125 200.371094 88.8125 187.300781 C 88.8125 171.972656 101.234375 159.550781 116.558594 159.550781 C 131.886719 159.550781 144.308594 171.972656 144.308594 187.300781 C 144.308594 200.371094 135.273438 211.324219 123.105469 214.269531 L 123.105469 242.714844 C 123.105469 243.539062 122.949219 244.328125 122.671875 245.054688 C 133.832031 235.570312 156.371094 213.273438 156.371094 187.859375 C 156.371094 165.871094 138.546875 148.050781 116.558594 148.050781" fill="#68ab95"></path></g></svg>